<?xml version="1.0" encoding="UTF-8"?>
<svg width="52px" height="57px" viewBox="0 0 52 57" version="1.1" xmlns="http://www.w3.org/2000/svg" xmlns:xlink="http://www.w3.org/1999/xlink">
    <!-- Generator: sketchtool 52.1 (67048) - http://www.bohemiancoding.com/sketch -->
    <title>12597FCC-E9AA-43A3-AC09-EAC8131069DD</title>
    <desc>Created with sketchtool.</desc>
    <g id="Home-Page" stroke="none" stroke-width="1" fill="none" fill-rule="evenodd">
        <g transform="translate(-828.000000, -601.000000)" fill="#002649" id="cube">
            <g transform="translate(828.000000, 601.000000)">
                <path d="M49.5658468,43.1872134 L27.1431149,53.9320474 L27.1431149,25.7202759 L33.0438979,23.1755376 L33.0438979,32.0625278 C33.0438979,32.5971255 33.4000426,33.0668188 33.9128511,33.2083169 L37.3230553,34.1477036 C37.426834,34.1755356 37.5316085,34.1894517 37.6342809,34.1894517 C38.1079234,34.1894517 38.5493702,33.9006665 38.7314809,33.4391001 L39.6453532,31.1162388 L42.0470894,31.7726294 C42.6221872,31.9349458 43.2306979,31.6276802 43.4530809,31.0652505 L44.7622638,27.7509009 C44.8164766,27.6117407 44.8452426,27.4633403 44.8452426,27.3124907 L44.8452426,17.3590884 L49.5658468,14.9841255 L49.5658468,43.1872134 Z M25.9896,23.6345435 L3.92522553,13.0624907 L9.02753191,10.6176138 L31.3600936,21.3184731 L25.9896,23.6345435 Z M24.7829787,53.9320474 L24.7828681,53.9320474 L2.36024681,43.1872134 L2.36024681,14.9436021 L24.7829787,25.6876567 L24.7829787,53.9320474 Z M18.7047319,5.98057471 L42.4851064,17.3753423 L42.4851064,27.08527 L41.6483489,29.2028423 L39.2453957,28.5464517 C38.6737277,28.3852485 38.0617872,28.6937388 37.8394043,29.2550552 L36.9266383,31.5755786 L35.4042553,31.1569849 L35.4042553,21.3750278 C35.4042553,20.9169126 35.1425957,20.4994321 34.7312426,20.3023813 L11.7733532,9.30182666 L18.7047319,5.98057471 Z M25.9630468,2.50257275 L48.0548596,13.0886528 L43.652783,15.3035259 L21.4503319,4.66501025 L25.9630468,2.50257275 Z M51.4045447,12.0929341 C51.3997872,12.0872563 51.2953447,12.010106 51.2531915,11.9898442 L26.4702128,0.114807129 C26.1498043,-0.038269043 25.7764,-0.038269043 25.4559915,0.114807129 L0.673012766,11.9898442 C0.261548936,12.1870063 0,12.6044868 0,13.0624907 L0,43.9374536 C0,44.3955688 0.261659574,44.8130493 0.673012766,45.0101001 L25.4559915,56.8851372 C25.6161957,56.961731 25.7902298,56.9999165 25.9630468,56.9999165 C26.1358638,56.9999165 26.3098979,56.961731 26.4701021,56.8851372 L51.2530809,45.0101001 C51.6645447,44.8130493 51.9260936,44.3955688 51.9260936,43.9374536 L51.9260936,13.0624907 C51.9262043,12.6701704 51.7240681,12.3141431 51.4045447,12.0929341 L51.4045447,12.0929341 Z" id="Fill-1"></path>
            </g>
        </g>
    </g>
</svg>