<?xml version="1.0" encoding="UTF-8"?>
<svg width="52px" height="49px" viewBox="0 0 52 49" version="1.1" xmlns="http://www.w3.org/2000/svg" xmlns:xlink="http://www.w3.org/1999/xlink">
    <!-- Generator: sketchtool 52.1 (67048) - http://www.bohemiancoding.com/sketch -->
    <title>FEDCF2F2-8237-431C-BD75-8BC516B726EC</title>
    <desc>Created with sketchtool.</desc>
    <defs>
        <polygon id="path-1" points="8.93544068 5.28677631e-15 8.93544068 5.91229539 0 5.91229539 0 0 8.93544068 0"></polygon>
        <polygon id="path-3" points="0 48.735119 48.91171 48.735119 48.91171 0.0938192064 2.03197017e-20 0.0938192064"></polygon>
    </defs>
    <g id="Home-Page" stroke="none" stroke-width="1" fill="none" fill-rule="evenodd">
        <g transform="translate(-1180.000000, -609.000000)" id="Page-1">
            <g transform="translate(1180.000000, 609.000000)">
                <path d="M30.4224274,17.6343006 C29.4621069,17.2135417 27.659913,16.4081101 24.9405044,16.4951637 C22.4857275,16.5740327 21.7293158,17.6863839 21.7634255,18.7373512 C21.8005339,19.9345238 23.15068,20.718006 26.3989771,21.7760417 C30.9798031,23.203125 32.8209795,25.2075893 32.936053,28.6223958 C33.0443796,31.9572173 30.7905127,34.8400298 26.4364603,35.7321429 L26.560155,39.594122 L22.8609346,39.7113095 L22.7417379,36.1156994 C20.2097455,36.1186756 17.7336031,35.4869792 16.2736311,34.749256 L17.2624388,30.3232887 C18.8742179,31.1369048 21.1322079,31.8534226 23.5832365,31.7745536 C25.7370232,31.703497 27.2183605,30.7931548 27.1707568,29.3311012 C27.1242776,27.9073661 25.8505973,27.046875 23.0258609,26.1982887 C18.9390639,24.9799107 16.1221989,23.1934524 16.0037518,19.5580357 C15.8950505,16.2232143 18.1530405,13.561756 22.1712431,12.6819196 L22.0531709,9.12053571 L25.7527661,9 L25.8618423,12.2987351 C28.3960838,12.2938988 30.1131907,12.8028274 31.4161079,13.3612351 L30.4224274,17.6343006 Z" id="Fill-1" fill="#002649"></path>
                <path d="M46,33.3028274 L46,21.4784226 C46,20.6614583 46.6660771,20 47.4892089,20 C48.3123407,20 48.9784178,20.6614583 48.9784178,21.4784226 L49.0054057,22.1104911 L48.9784178,33.3028274 C48.9784178,34.1197917 48.3123407,34.78125 47.4892089,34.78125 C46.6660771,34.78125 46,34.1197917 46,33.3028274" id="Fill-3" fill="#002649"></path>
                <g id="Group-7" transform="translate(42.730886, 29.040179)">
                    <mask id="mask-2" fill="white">
                        <use xlink:href="#path-1"></use>
                    </mask>
                    <g id="Clip-6"></g>
                    <path d="M0,1.4781436 C0,1.09979539 0.145434947,0.721819196 0.436304841,0.432756696 C1.01804463,-0.144252232 1.96037313,-0.144252232 2.54211291,0.432756696 L4.46762663,2.34421503 L6.39314035,0.432756696 C6.97488014,-0.144252232 7.91758347,-0.144252232 8.49894842,0.432756696 C9.08106304,1.01013765 9.08106304,1.94577753 8.49894842,2.52315848 L5.5209055,5.47925967 C4.93879088,6.05664063 3.99646238,6.05664063 3.41472259,5.47925967 L0.436304841,2.52315848 C0.145434947,2.23446801 0,1.85649182 0,1.4781436" id="Fill-5" fill="#002649" mask="url(#mask-2)"></path>
                </g>
                <g id="cost">
                    <mask id="mask-4" fill="white">
                        <use xlink:href="#path-3"></use>
                    </mask>
                    <g id="Clip-9"></g>
                    <path d="M34.7040019,43.1958333 C31.2975256,45.0276786 27.34192,45.9752232 23.1475461,45.7170387 C12.2665382,45.0481399 3.52095008,36.222247 3.02167341,25.4134673 C2.45717591,13.1921131 12.3122677,3.07008929 24.5044392,3.07008929 C35.7096771,3.07008929 44.9358002,11.6210565 45.9182358,22.4930804 L48.8827847,22.4930804 C48.8786616,22.4380208 48.9161448,22.3833333 48.911272,22.3286458 C47.7923975,9.32641369 36.3296498,-0.791889881 22.7438517,0.155282738 C10.7458434,0.991964286 1.03356269,10.534375 0.0792395562,22.4343006 C-1.06699773,36.7341518 10.333153,48.7352679 24.5044392,48.7352679 C28.7036858,48.7352679 32.6570425,47.6772321 36.1148708,45.8212054 C36.6047767,45.5585565 36.9151379,45.0552083 36.9151379,44.502753 C36.9151379,43.3751488 35.7029301,42.659003 34.7040019,43.1958333" id="Fill-8" fill="#002649" mask="url(#mask-4)"></path>
                </g>
            </g>
        </g>
    </g>
</svg>