<?xml version="1.0" encoding="UTF-8"?>
<svg width="47px" height="58px" viewBox="0 0 47 58" version="1.1" xmlns="http://www.w3.org/2000/svg" xmlns:xlink="http://www.w3.org/1999/xlink">
    <!-- Generator: sketchtool 52.1 (67048) - http://www.bohemiancoding.com/sketch -->
    <title>78BF8EC9-E6D5-40E0-ABD4-F92AC0828A73</title>
    <desc>Created with sketchtool.</desc>
    <g id="Home-Page" stroke="none" stroke-width="1" fill="none" fill-rule="evenodd">
        <g transform="translate(-1185.000000, -802.000000)" fill="#002649" id="Page-1">
            <g transform="translate(1185.000000, 802.000000)">
                <path d="M12.4393821,11.5165488 C11.9416093,11.5165488 11.5378366,11.9193493 11.5378366,12.4163125 C11.5378366,13.5077684 10.6483222,14.3957477 9.55484139,14.3957477 C8.46136053,14.3957477 7.57173373,13.5077684 7.57173373,12.4163125 C7.57173373,11.3248566 8.46136053,10.4368773 9.55484139,10.4368773 C10.0525017,10.4368773 10.4562744,10.0340767 10.4562744,9.53711357 C10.4562744,9.04015041 10.0526141,8.63734987 9.55484139,8.63734987 C7.46727679,8.63734987 5.76898014,10.3326138 5.76898014,12.4162003 C5.76898014,14.4997868 7.46738923,16.1950507 9.55484139,16.1950507 C11.6422935,16.1950507 13.3407026,14.4997868 13.3407026,12.4162003 C13.3408151,11.9193493 12.9371548,11.5165488 12.4393821,11.5165488" id="Fill-1"></path>
                <path d="M12.4393821,22.0733123 C11.9416093,22.0733123 11.5378366,22.4761128 11.5378366,22.9730759 C11.5378366,24.0645318 10.6483222,24.9525112 9.55484139,24.9525112 C8.46136053,24.9525112 7.57173373,24.0645318 7.57173373,22.9730759 C7.57173373,21.88162 8.46136053,20.9936407 9.55484139,20.9936407 C10.0525017,20.9936407 10.4562744,20.5908402 10.4562744,20.093877 C10.4562744,19.5969139 10.0526141,19.1941133 9.55484139,19.1941133 C7.46727679,19.1941133 5.76898014,20.8893772 5.76898014,22.9729637 C5.76898014,25.0565502 7.46738923,26.7518141 9.55484139,26.7518141 C11.6422935,26.7518141 13.3407026,25.0565502 13.3407026,22.9729637 C13.3408151,22.476225 12.9371548,22.0733123 12.4393821,22.0733123" id="Fill-3"></path>
                <path d="M23.0156751,23.9928156 L16.2853426,23.9928156 C15.7875699,23.9928156 15.3837971,24.3956162 15.3837971,24.8925793 C15.3837971,25.3895425 15.7874574,25.792343 16.2853426,25.792343 L23.0156751,25.792343 C23.5135603,25.792343 23.9172206,25.3895425 23.9172206,24.8925793 C23.9172206,24.3956162 23.5136727,23.9928156 23.0156751,23.9928156" id="Fill-5"></path>
                <path d="M23.0156751,20.153966 L16.2853426,20.153966 C15.7875699,20.153966 15.3837971,20.5567665 15.3837971,21.0537297 C15.3837971,21.5506929 15.7874574,21.9534934 16.2853426,21.9534934 L23.0156751,21.9534934 C23.5135603,21.9534934 23.9172206,21.5506929 23.9172206,21.0537297 C23.9172206,20.5567665 23.5136727,20.153966 23.0156751,20.153966" id="Fill-7"></path>
                <path d="M21.0927792,34.5495791 L16.2852864,34.5495791 C15.7875136,34.5495791 15.3838533,34.9523796 15.3838533,35.449455 C15.3838533,35.9463059 15.7874012,36.3491065 16.2852864,36.3491065 L21.0927792,36.3491065 C21.5905519,36.3491065 21.9942122,35.9463059 21.9942122,35.449455 C21.9942122,34.9523796 21.5905519,34.5495791 21.0927792,34.5495791" id="Fill-9"></path>
                <path d="M23.0156751,30.7108417 L16.2853426,30.7108417 C15.7875699,30.7108417 15.3837971,31.1136422 15.3837971,31.6106054 C15.3837971,32.1075685 15.7874574,32.5103691 16.2853426,32.5103691 L23.0156751,32.5103691 C23.5135603,32.5103691 23.9172206,32.1075685 23.9172206,31.6106054 C23.9172206,31.1136422 23.5136727,30.7108417 23.0156751,30.7108417" id="Fill-11"></path>
                <path d="M31.6691847,13.4359399 L16.2853426,13.4359399 C15.7875699,13.4359399 15.3837971,13.8387405 15.3837971,14.3357036 C15.3837971,14.8326668 15.7874574,15.2354673 16.2853426,15.2354673 L31.6690722,15.2354673 C32.1669574,15.2354673 32.5706177,14.8326668 32.5706177,14.3357036 C32.5706177,13.8387405 32.1670699,13.4359399 31.6691847,13.4359399" id="Fill-13"></path>
                <path d="M27.8232691,9.59709033 L16.2853313,9.59709033 C15.7875586,9.59709033 15.3837859,9.99989087 15.3837859,10.496854 C15.3837859,10.9938172 15.7874462,11.3966177 16.2853313,11.3966177 L27.8232691,11.3966177 C28.3210419,11.3966177 28.7247022,10.9938172 28.7247022,10.496854 C28.7247022,9.99989087 28.3211543,9.59709033 27.8232691,9.59709033" id="Fill-15"></path>
                <path d="M12.4393821,32.6302328 C11.9416093,32.6302328 11.5378366,33.0330334 11.5378366,33.5299965 C11.5378366,34.6214524 10.6483222,35.5093195 9.55484139,35.5093195 C8.46136053,35.5093195 7.57173373,34.6214524 7.57173373,33.5299965 C7.57173373,32.4385406 8.46136053,31.5505613 9.55484139,31.5505613 C10.0525017,31.5505613 10.4562744,31.1477608 10.4562744,30.6507976 C10.4562744,30.1538344 10.0526141,29.7510339 9.55484139,29.7510339 C7.46727679,29.7510339 5.76898014,31.4462978 5.76898014,33.5298843 C5.76898014,35.6134708 7.46738923,37.3087347 9.55484139,37.3087347 C11.6422935,37.3087347 13.3407026,35.6134708 13.3407026,33.5298843 C13.3408151,33.0330334 12.9371548,32.6302328 12.4393821,32.6302328" id="Fill-17"></path>
                <path d="M35.5151002,-1.13686838e-13 L2.82446388,-1.13686838e-13 C1.26705478,-1.13686838e-13 7.8708134e-05,1.26462982 7.8708134e-05,2.81915482 L7.8708134e-05,43.127042 C7.8708134e-05,44.681567 1.26694234,45.9461968 2.82446388,45.9461968 L19.1697821,45.9461968 C19.6676672,45.9461968 20.0712151,45.5433962 20.0712151,45.0464331 C20.0712151,44.5495822 19.6677797,44.1466694 19.1697821,44.1466694 L2.82446388,44.1466694 C2.26102608,44.1466694 1.8028323,43.6892119 1.8028323,43.1269297 L1.8028323,2.81915482 C1.8028323,2.25687266 2.26102608,1.79941516 2.82446388,1.79941516 L35.5151002,1.79941516 C36.078538,1.79941516 36.5367318,2.25687266 36.5367318,2.81915482 L36.5367318,32.5703907 C36.5367318,33.0672417 36.9403921,33.4701544 37.4382773,33.4701544 C37.9359376,33.4701544 38.3395978,33.0673539 38.3395978,32.5703907 L38.3395978,2.81915482 C38.3394854,1.26462982 37.0726218,-1.13686838e-13 35.5151002,-1.13686838e-13" id="Fill-19"></path>
                <path d="M45.1901177,49.8450231 C45.1901177,53.053174 42.5752086,55.6632406 39.3611057,55.6632406 L31.2310053,55.6632406 C28.5127636,55.6632406 26.1794048,53.8187082 25.5568234,51.1775533 L23.5450435,42.6437711 C23.233022,41.319995 23.6219526,39.9554788 24.5852278,38.9938752 L25.9603713,37.6213905 L25.9603713,40.7277469 C25.9603713,41.2245979 26.3638067,41.6275106 26.8616919,41.6275106 C27.3596895,41.6275106 27.7632373,41.2247101 27.7632373,40.7277469 L27.7632373,23.5898131 C27.7632373,22.7520014 28.3536608,22.0366348 29.1075722,21.9614394 C29.540467,21.9180057 29.9545842,22.0529085 30.2730148,22.3406712 C30.5876225,22.6247304 30.7678641,23.0302245 30.7678641,23.4531145 L30.7678641,39.2883719 C30.7678641,39.7852229 31.171412,40.1881356 31.6692971,40.1881356 C32.1672947,40.1881356 32.5708426,39.7853351 32.5708426,39.2883719 L32.5708426,37.8487725 C32.5708426,37.4258824 32.7509718,37.0203883 33.0655794,36.7363292 C33.3843474,36.4485664 33.7982397,36.3135514 34.2311344,36.3570974 C34.9849335,36.432405 35.5754694,37.1477716 35.5754694,37.9855832 L35.5754694,40.247843 C35.5754694,40.744694 35.9790172,41.1476067 36.4770148,41.1476067 C36.9747876,41.1476067 37.3783354,40.7448062 37.3783354,40.247843 L37.3783354,38.8082436 C37.3783354,38.3853535 37.558577,37.9798594 37.8732971,37.6958003 C38.1919526,37.4081498 38.605845,37.2731347 39.0387397,37.3165685 C39.7925388,37.3918761 40.3830746,38.1072427 40.3830746,38.9450543 L40.3830746,41.2074264 C40.3830746,41.7042773 40.7866225,42.1071901 41.2846201,42.1071901 C41.7822804,42.1071901 42.1859407,41.7043895 42.1859407,41.2074264 L42.1859407,39.7678269 C42.1859407,39.3449368 42.3662947,38.9394427 42.6809024,38.6553836 C42.9995579,38.3677331 43.4131129,38.2326058 43.8464574,38.276264 C44.600144,38.3514595 45.1907923,39.066826 45.1907923,39.9046377 L45.1907923,49.8450231 L45.1901177,49.8450231 Z M44.0256871,36.4859397 C43.1877828,36.4025513 42.3504407,36.6395852 41.6878306,37.1417111 C41.1598115,36.2576598 40.2596153,35.6303954 39.2181943,35.5262441 C38.3801775,35.442968 37.5428354,35.6800019 36.8803378,36.1821277 C36.3523187,35.2979643 35.4522349,34.6706998 34.4107014,34.5665485 C33.7708043,34.5028008 33.1320316,34.625807 32.5706177,34.9109885 L32.5706177,23.4530023 C32.5706177,22.5227115 32.1740411,21.6309163 31.482534,21.0063454 C30.7914766,20.3823356 29.8603593,20.0777381 28.9276679,20.1708906 C27.2636656,20.3372184 25.9603713,21.8389943 25.9603713,23.5899253 L25.9603713,35.0768673 L23.3104933,37.7217259 C21.9025172,39.1272068 21.3340196,41.1213444 21.7903019,43.0562236 L23.8018569,51.5900058 C24.6169359,55.047985 27.6718234,57.4629925 31.2308928,57.4629925 L39.3609933,57.4629925 C43.5692923,57.4629925 46.9928713,54.0457535 46.9928713,49.8452476 L46.9928713,39.9051988 C46.9929837,38.1540434 45.689577,36.6522674 44.0256871,36.4859397 L44.0256871,36.4859397 Z" id="Fill-21"></path>
            </g>
        </g>
    </g>
</svg>