<?xml version="1.0" encoding="UTF-8"?>
<svg width="61px" height="39px" viewBox="0 0 61 39" version="1.1" xmlns="http://www.w3.org/2000/svg" xmlns:xlink="http://www.w3.org/1999/xlink">
    <!-- Generator: sketchtool 52.1 (67048) - http://www.bohemiancoding.com/sketch -->
    <title>7C3EA446-53D1-4703-B1AB-EB5BAF2F3390</title>
    <desc>Created with sketchtool.</desc>
    <defs>
        <polygon id="path-1" points="30.4999345 0.0150135211 0 0.0150135211 0 38.606078 60.9998689 38.606078 60.9998689 0.0150135211 30.4999345 0.0150135211"></polygon>
    </defs>
    <g id="Home-Page" stroke="none" stroke-width="1" fill="none" fill-rule="evenodd">
        <g transform="translate(-824.000000, -820.000000)" id="Group">
            <g transform="translate(824.000000, 820.000000)">
                <g id="Page-1">
                    <path d="M17.2557324,30.6864099 C16.1672637,30.6864099 15.2818105,31.5720885 15.2818105,32.6605688 C15.2818105,33.7491682 16.1672637,34.6348468 17.2557324,34.6348468 C18.3442012,34.6348468 19.2296543,33.7491682 19.2296543,32.6605688 C19.2296543,31.5720885 18.3442012,30.6864099 17.2557324,30.6864099" id="Fill-1" fill="#002649"></path>
                    <path d="M50.8758348,30.6864099 C49.7872469,30.6864099 48.9019129,31.5720885 48.9019129,32.6605688 C48.9019129,33.7491682 49.7872469,34.6348468 50.8758348,34.6348468 C51.9643035,34.6348468 52.8496375,33.7491682 52.8496375,32.6605688 C52.8496375,31.5720885 51.9643035,30.6864099 50.8758348,30.6864099" id="Fill-3" fill="#002649"></path>
                    <path d="M39.6690625,26.6107036 L25.4060234,26.6107036 C24.8785879,26.6107036 24.450873,27.0384698 24.450873,27.5660878 C24.450873,28.0935867 24.8784687,28.5212337 25.4060234,28.5212337 L39.6690625,28.5212337 C40.196498,28.5212337 40.6242129,28.0935867 40.6242129,27.5660878 C40.6242129,27.0384698 40.1966172,26.6107036 39.6690625,26.6107036" id="Fill-5" fill="#002649"></path>
                    <path d="M15.2182371,22.5351761 L2.99274102,22.5351761 C2.46530547,22.5351761 2.03747148,22.9628231 2.03747148,23.4904411 C2.03747148,24.0180592 2.46518633,24.4457062 2.99274102,24.4457062 L15.2182371,24.4457062 C15.7456727,24.4457062 16.1733875,24.0180592 16.1733875,23.4904411 C16.1733875,22.9628231 15.7456727,22.5351761 15.2182371,22.5351761" id="Fill-7" fill="#002649"></path>
                    <g id="Group-11" transform="translate(0.000000, 0.104141)">
                        <mask id="mask-2" fill="white">
                            <use xlink:href="#path-1"></use>
                        </mask>
                        <g id="Clip-10"></g>
                        <path d="M58.0072947,24.4688223 C57.4104002,24.4688223 56.924783,23.9831468 56.924783,23.3861806 L56.924783,22.3035389 L59.0896873,22.3035389 L59.0896873,24.4688223 L58.0072947,24.4688223 Z M50.8758943,36.6957862 C48.5936365,36.6957862 46.736949,34.8388758 46.736949,32.5564631 C46.736949,30.2740504 48.5936365,28.41714 50.8758943,28.41714 C53.1579139,28.41714 55.0146014,30.2740504 55.0146014,32.5564631 C55.0146014,34.8388758 53.1579139,36.6957862 50.8758943,36.6957862 L50.8758943,36.6957862 Z M17.2557205,36.6957862 C14.9735818,36.6957862 13.1168943,34.8388758 13.1168943,32.5564631 C13.1168943,30.2740504 14.9735818,28.41714 17.2557205,28.41714 C19.5378592,28.41714 21.3945467,30.2740504 21.3945467,32.5564631 C21.3945467,34.8388758 19.5378592,36.6957862 17.2557205,36.6957862 L17.2557205,36.6957862 Z M44.6994061,16.3175527 L44.6994061,10.0766941 L53.1863885,10.0766941 L54.7464158,16.3175527 L44.6994061,16.3175527 Z M44.6994061,6.00099972 L51.8945467,6.00099972 C53.0531893,6.00099972 53.9958299,6.94375352 53.9958299,8.10253521 L53.9958299,8.16616394 L44.6994061,8.16616394 L44.6994061,6.00099972 Z M6.0489959,0.0150135211 C4.96052715,0.0150135211 4.07507402,0.900572958 4.07507402,1.98917239 L4.07507402,19.3107245 C4.07507402,19.8382234 4.50266973,20.2659896 5.03022441,20.2659896 C5.5577791,20.2659896 5.9853748,19.8383425 5.9853748,19.3107245 L5.9853748,1.98917239 C5.9853748,1.95402169 6.01384941,1.92554366 6.0489959,1.92554366 L42.725365,1.92554366 C42.7605115,1.92554366 42.7891053,1.95402169 42.7891053,1.98917239 L42.7891053,19.3109628 C42.7891053,19.8384617 43.2165818,20.2662279 43.7441365,20.2662279 C44.2715721,20.2662279 44.6992869,19.8385808 44.6992869,19.3109628 L44.6992869,18.2280828 L55.9659393,18.2280828 C55.9670115,18.2280828 55.9678455,18.2283211 55.9690369,18.2283211 C55.96999,18.2283211 55.9709432,18.228202 55.9720154,18.228202 C57.3583357,18.2292744 58.5355643,19.1393797 58.9395701,20.3933662 L55.9696326,20.3933662 C55.4421971,20.3933662 55.0144822,20.8210132 55.0144822,21.3486313 L55.0144822,23.3864189 C55.0144822,25.0368338 56.3569588,26.3794715 58.0071756,26.3794715 L59.0896873,26.3794715 L59.0896873,30.5824234 L56.5922615,30.5824234 C55.7718592,28.2133851 53.5199822,26.506729 50.8756561,26.506729 C48.2313299,26.506729 45.9793338,28.2132659 45.1590506,30.5824234 L44.6991678,30.5824234 L44.6991678,23.3862997 C44.6991678,22.8588008 44.2715721,22.4310346 43.7440174,22.4310346 C43.2165818,22.4310346 42.7889861,22.8586817 42.7889861,23.3862997 L42.7889861,30.5823042 L22.9724451,30.5823042 C22.1519236,28.2132659 19.9000467,26.5066099 17.2557205,26.5066099 C14.6113943,26.5066099 12.3593982,28.2131468 11.5392342,30.5823042 L6.0489959,30.5823042 C6.01384941,30.5823042 5.9853748,30.5538262 5.9853748,30.5186755 L5.9853748,28.41714 L10.124201,28.41714 C10.6516365,28.41714 11.0793514,27.989493 11.0793514,27.4618749 C11.0793514,26.9342569 10.6517557,26.5066099 10.124201,26.5066099 L0.955138477,26.5066099 C0.42770293,26.5066099 -1.19140625e-05,26.9342569 -1.19140625e-05,27.4618749 C-1.19140625e-05,27.989493 0.427583789,28.41714 0.955138477,28.41714 L4.07519316,28.41714 L4.07519316,30.5186755 C4.07519316,31.6072749 4.96064629,32.4928344 6.04923418,32.4928344 L11.2083807,32.4928344 C11.2081424,32.5140439 11.2067127,32.5351344 11.2067127,32.5564631 C11.2067127,35.8922054 13.9203787,38.606078 17.2557205,38.606078 C20.5910623,38.606078 23.3048475,35.8922054 23.3048475,32.5564631 C23.3048475,32.5350152 23.3032986,32.5140439 23.3030604,32.4928344 L44.8281971,32.4928344 C44.8279588,32.5140439 44.8265291,32.5351344 44.8265291,32.5564631 C44.8265291,35.8922054 47.5403143,38.606078 50.8756561,38.606078 C54.2108787,38.606078 56.9245447,35.8922054 56.9245447,32.5564631 C56.9245447,32.5350152 56.923115,32.5140439 56.9228768,32.4928344 L60.0448377,32.4928344 C60.5721541,32.4928344 60.9998689,32.0651873 60.9998689,31.5375693 L60.9998689,21.3485121 C60.9999881,18.8326749 59.1441346,16.7424592 56.7297498,16.3749854 L55.1501834,10.0556037 C55.5820682,9.96385437 55.9060115,9.58065211 55.9060115,9.12154817 L55.9060115,8.10265437 C55.9060115,5.89042394 54.1063924,4.09070789 51.8945467,4.09070789 L44.6994061,4.09070789 L44.6994061,1.98917239 C44.6994061,0.900572958 43.8139529,0.0150135211 42.7254842,0.0150135211 L6.0489959,0.0150135211 Z" id="Fill-9" fill="#002649" mask="url(#mask-2)"></path>
                    </g>
                </g>
            </g>
        </g>
    </g>
</svg>